<?xml version="1.0" standalone="no"?><!DOCTYPE svg PUBLIC "-//W3C//DTD SVG 1.1//EN" "http://www.w3.org/Graphics/SVG/1.1/DTD/svg11.dtd"><svg t="1683388434439" class="icon" viewBox="0 0 1024 1024" version="1.1" xmlns="http://www.w3.org/2000/svg" p-id="3722" xmlns:xlink="http://www.w3.org/1999/xlink" width="200" height="200"><path d="M169.6 825.6h691.2v57.6H169.6v-57.6z m748.8-675.2h-816c-16 0-22.4 16-22.4 28.8V704c0 16 16 28.8 28.8 28.8h809.6c16 0 28.8-16 28.8-28.8V179.2c0-16-12.8-28.8-28.8-28.8zM889.6 672H134.4V208h758.4v464zM460.8 528l-6.4 28.8 57.6 16 51.2-217.6 86.4 80-86.4 96 35.2 35.2 131.2-131.2-131.2-124.8-35.2 35.2 6.4-22.4-57.6-12.8-51.2 211.2-80-80 80-96-35.2-35.2-124.8 131.2 124.8 124.8 35.2-38.4z" fill="#ffffff" p-id="3723"></path></svg>